<svg xmlns="http://www.w3.org/2000/svg" xmlns:xlink="http://www.w3.org/1999/xlink" width="50" zoomAndPan="magnify" viewBox="0 0 37.5 37.499999" height="50" preserveAspectRatio="xMidYMid meet" version="1.0"><defs><clipPath id="id1"><path d="M 12 7.5 L 25 7.5 L 25 20 L 12 20 Z M 12 7.5 " clip-rule="nonzero"/></clipPath><clipPath id="id2"><path d="M 7.050781 20 L 29.550781 20 L 29.550781 30 L 7.050781 30 Z M 7.050781 20 " clip-rule="nonzero"/></clipPath><clipPath id="id3"><path d="M 13 7.5 L 26 7.5 L 26 20 L 13 20 Z M 13 7.5 " clip-rule="nonzero"/></clipPath><clipPath id="id4"><path d="M 7.949219 20 L 30.449219 20 L 30.449219 30 L 7.949219 30 Z M 7.949219 20 " clip-rule="nonzero"/></clipPath></defs><g clip-path="url(#id1)"><path fill="rgb(14.118958%, 12.548828%, 12.159729%)" d="M 18.300781 8.523438 C 21.113281 8.523438 23.414062 10.824219 23.414062 13.636719 C 23.414062 16.449219 21.113281 18.75 18.300781 18.75 C 15.488281 18.75 13.1875 16.449219 13.1875 13.636719 C 13.1875 10.824219 15.488281 8.523438 18.300781 8.523438 Z M 18.300781 19.773438 C 21.675781 19.773438 24.4375 17.011719 24.4375 13.636719 C 24.4375 10.261719 21.675781 7.5 18.300781 7.5 C 14.925781 7.5 12.164062 10.261719 12.164062 13.636719 C 12.164062 17.011719 14.925781 19.773438 18.300781 19.773438 " fill-opacity="1" fill-rule="nonzero"/></g><g clip-path="url(#id2)"><path fill="rgb(14.118958%, 12.548828%, 12.159729%)" d="M 22.902344 20.796875 L 13.699219 20.796875 C 10.015625 20.796875 7.050781 23.761719 7.050781 27.445312 L 7.050781 30 L 8.074219 30 L 8.074219 27.445312 C 8.074219 24.324219 10.578125 21.820312 13.699219 21.820312 L 22.902344 21.820312 C 26.019531 21.820312 28.527344 24.324219 28.527344 27.445312 L 28.527344 30 L 29.550781 30 L 29.550781 27.445312 C 29.550781 23.761719 26.585938 20.796875 22.902344 20.796875 " fill-opacity="1" fill-rule="nonzero"/></g><g clip-path="url(#id3)"><path fill="rgb(14.118958%, 12.548828%, 12.159729%)" d="M 19.199219 8.523438 C 22.011719 8.523438 24.3125 10.824219 24.3125 13.636719 C 24.3125 16.449219 22.011719 18.75 19.199219 18.75 C 16.386719 18.75 14.085938 16.449219 14.085938 13.636719 C 14.085938 10.824219 16.386719 8.523438 19.199219 8.523438 Z M 19.199219 19.773438 C 22.574219 19.773438 25.335938 17.011719 25.335938 13.636719 C 25.335938 10.261719 22.574219 7.5 19.199219 7.5 C 15.824219 7.5 13.0625 10.261719 13.0625 13.636719 C 13.0625 17.011719 15.824219 19.773438 19.199219 19.773438 " fill-opacity="1" fill-rule="nonzero"/></g><g clip-path="url(#id4)"><path fill="rgb(14.118958%, 12.548828%, 12.159729%)" d="M 23.804688 20.796875 L 14.597656 20.796875 C 10.917969 20.796875 7.949219 23.761719 7.949219 27.445312 L 7.949219 30 L 8.972656 30 L 8.972656 27.445312 C 8.972656 24.324219 11.476562 21.820312 14.597656 21.820312 L 23.804688 21.820312 C 26.921875 21.820312 29.429688 24.324219 29.429688 27.445312 L 29.429688 30 L 30.449219 30 L 30.449219 27.445312 C 30.449219 23.761719 27.484375 20.796875 23.804688 20.796875 " fill-opacity="1" fill-rule="nonzero"/></g></svg>