<svg xmlns="http://www.w3.org/2000/svg" xmlns:xlink="http://www.w3.org/1999/xlink" width="50" zoomAndPan="magnify" viewBox="0 0 37.5 37.499999" height="50" preserveAspectRatio="xMidYMid meet" version="1.0"><defs><clipPath id="id1"><path d="M 11.996094 13.433594 L 25.496094 13.433594 L 25.496094 24.230469 L 11.996094 24.230469 Z M 11.996094 13.433594 " clip-rule="nonzero"/></clipPath><clipPath id="id2"><path d="M 12 13.375 L 25.5 13.375 L 25.5 24.171875 L 12 24.171875 Z M 12 13.375 " clip-rule="nonzero"/></clipPath></defs><g clip-path="url(#id1)"><path fill="rgb(0%, 0%, 0%)" d="M 20.300781 24.230469 L 25.652344 18.828125 L 20.300781 13.433594 L 19.65625 14.078125 L 23.925781 18.371094 L 1.445312 18.371094 L 1.445312 19.28125 L 23.925781 19.28125 L 19.65625 23.585938 Z M 20.300781 24.230469 " fill-opacity="1" fill-rule="nonzero"/></g><g clip-path="url(#id2)"><path fill="rgb(0%, 0%, 0%)" d="M 20.304688 24.097656 L 25.425781 18.953125 C 25.527344 18.851562 25.527344 18.695312 25.425781 18.597656 L 20.304688 13.453125 C 20.207031 13.355469 20.050781 13.355469 19.953125 13.453125 C 19.855469 13.554688 19.855469 13.710938 19.953125 13.808594 L 24.648438 18.527344 L 12.25 18.527344 C 12.113281 18.527344 12 18.640625 12 18.777344 C 12 18.914062 12.113281 19.027344 12.25 19.027344 L 24.648438 19.027344 L 19.953125 23.738281 C 19.902344 23.789062 19.878906 23.851562 19.878906 23.914062 C 19.878906 23.976562 19.902344 24.039062 19.953125 24.089844 C 20.050781 24.1875 20.207031 24.1875 20.304688 24.097656 Z M 20.304688 24.097656 " fill-opacity="1" fill-rule="nonzero"/></g></svg>