<svg xmlns="http://www.w3.org/2000/svg" xmlns:xlink="http://www.w3.org/1999/xlink" width="50" zoomAndPan="magnify" viewBox="0 0 37.5 37.499999" height="50" preserveAspectRatio="xMidYMid meet" version="1.0"><defs><clipPath id="id1"><path d="M 1.125 15.375 L 36.375 15.375 L 36.375 34.125 L 1.125 34.125 Z M 1.125 15.375 " clip-rule="nonzero"/></clipPath></defs><g clip-path="url(#id1)"><path fill="rgb(0%, 0%, 0%)" d="M 18.671875 34.078125 C 18.46875 34.078125 18.292969 34.007812 18.148438 33.859375 L 1.339844 16.707031 C 1.203125 16.558594 1.136719 16.382812 1.140625 16.179688 C 1.144531 15.976562 1.214844 15.800781 1.355469 15.65625 C 1.496094 15.511719 1.667969 15.4375 1.867188 15.4375 C 2.066406 15.433594 2.238281 15.5 2.386719 15.636719 L 18.671875 32.257812 L 34.957031 15.636719 C 35.105469 15.5 35.277344 15.433594 35.476562 15.4375 C 35.675781 15.4375 35.847656 15.511719 35.988281 15.65625 C 36.128906 15.800781 36.199219 15.976562 36.203125 16.179688 C 36.207031 16.382812 36.140625 16.558594 36.003906 16.707031 L 19.199219 33.859375 C 19.050781 34.007812 18.878906 34.082031 18.671875 34.078125 Z M 18.671875 34.078125 " fill-opacity="1" fill-rule="nonzero"/></g></svg>