<svg xmlns="http://www.w3.org/2000/svg" xmlns:xlink="http://www.w3.org/1999/xlink" width="50" zoomAndPan="magnify" viewBox="0 0 37.5 37.499999" height="50" preserveAspectRatio="xMidYMid meet" version="1.0"><defs><clipPath id="id1"><path d="M 7.496094 9.886719 L 29.996094 9.886719 L 29.996094 27.886719 L 7.496094 27.886719 Z M 7.496094 9.886719 " clip-rule="nonzero"/></clipPath><clipPath id="id2"><path d="M 7.5 9.789062 L 30 9.789062 L 30 27.789062 L 7.5 27.789062 Z M 7.5 9.789062 " clip-rule="nonzero"/></clipPath></defs><g clip-path="url(#id1)"><path fill="rgb(100%, 100%, 100%)" d="M 21.332031 27.886719 L 30.253906 18.878906 L 21.332031 9.886719 L 20.261719 10.964844 L 27.378906 18.121094 L -10.09375 18.121094 L -10.09375 19.632812 L 27.378906 19.632812 L 20.261719 26.808594 Z M 21.332031 27.886719 " fill-opacity="1" fill-rule="nonzero"/></g><g clip-path="url(#id2)"><path fill="rgb(100%, 100%, 100%)" d="M 21.34375 27.660156 L 29.875 19.085938 C 30.042969 18.921875 30.042969 18.660156 29.875 18.496094 L 21.34375 9.921875 C 21.179688 9.757812 20.917969 9.757812 20.753906 9.921875 C 20.589844 10.089844 20.589844 10.351562 20.753906 10.515625 L 28.582031 18.378906 L 7.914062 18.378906 C 7.6875 18.378906 7.5 18.566406 7.5 18.796875 C 7.5 19.023438 7.6875 19.210938 7.914062 19.210938 L 28.582031 19.210938 L 20.753906 27.066406 C 20.671875 27.148438 20.628906 27.253906 20.628906 27.355469 C 20.628906 27.460938 20.671875 27.566406 20.753906 27.648438 C 20.917969 27.8125 21.179688 27.8125 21.34375 27.660156 Z M 21.34375 27.660156 " fill-opacity="1" fill-rule="nonzero"/></g></svg>