<svg xmlns="http://www.w3.org/2000/svg" xmlns:xlink="http://www.w3.org/1999/xlink" width="50" zoomAndPan="magnify" viewBox="0 0 37.5 37.499999" height="50" preserveAspectRatio="xMidYMid meet" version="1.0"><defs><clipPath id="id1"><path d="M 7.34375 26.636719 L 29.84375 26.636719 L 29.84375 30.140625 L 7.34375 30.140625 Z M 7.34375 26.636719 " clip-rule="nonzero"/></clipPath><clipPath id="id2"><path d="M 7.34375 16 L 29.84375 16 L 29.84375 21 L 7.34375 21 Z M 7.34375 16 " clip-rule="nonzero"/></clipPath><clipPath id="id3"><path d="M 7.34375 7.65625 L 29.84375 7.65625 L 29.84375 12 L 7.34375 12 Z M 7.34375 7.65625 " clip-rule="nonzero"/></clipPath></defs><g clip-path="url(#id1)"><path fill="rgb(14.118958%, 12.548828%, 12.159729%)" d="M 29.84375 26.65625 L 7.34375 26.65625 L 7.34375 30.140625 L 29.84375 30.140625 L 29.84375 26.65625 " fill-opacity="1" fill-rule="nonzero"/></g><g clip-path="url(#id2)"><path fill="rgb(14.118958%, 12.548828%, 12.159729%)" d="M 29.84375 16.96875 L 7.34375 16.96875 L 7.34375 20.457031 L 29.84375 20.457031 L 29.84375 16.96875 " fill-opacity="1" fill-rule="nonzero"/></g><g clip-path="url(#id3)"><path fill="rgb(14.118958%, 12.548828%, 12.159729%)" d="M 29.84375 7.671875 L 7.34375 7.671875 L 7.34375 11.15625 L 29.84375 11.15625 L 29.84375 7.671875 " fill-opacity="1" fill-rule="nonzero"/></g></svg>