<svg xmlns="http://www.w3.org/2000/svg" xmlns:xlink="http://www.w3.org/1999/xlink" width="50" zoomAndPan="magnify" viewBox="0 0 37.5 30.000001" height="40" preserveAspectRatio="xMidYMid meet" version="1.0"><defs><clipPath id="id1"><path d="M 0.363281 0 L 36.652344 0 L 36.652344 29.03125 L 0.363281 29.03125 Z M 0.363281 0 " clip-rule="nonzero"/></clipPath></defs><g clip-path="url(#id1)"><rect x="-3.75" width="45" fill="rgb(100%, 100%, 100%)" y="-3" height="36.000001" fill-opacity="1"/></g><path fill="rgb(0%, 0%, 0%)" d="M 8.351562 20.648438 L 8.351562 21.59375 L 1.757812 21.59375 L 1.757812 20.648438 Z M 18.75 20.648438 C 18.0625 21.28125 17.253906 21.597656 16.324219 21.59375 L 9.296875 21.59375 L 9.296875 20.648438 Z M 25.316406 20.648438 L 25.316406 21.59375 L 20.609375 21.59375 L 20.609375 20.648438 Z M 35.683594 20.648438 L 35.683594 21.59375 L 30.972656 21.59375 L 30.972656 20.648438 Z M 28.46875 20.648438 L 28.140625 21.585938 L 27.828125 20.648438 Z M 19.8125 18.839844 C 19.734375 19.175781 19.609375 19.488281 19.433594 19.785156 L 9.296875 19.785156 L 9.296875 18.839844 Z M 25.316406 18.839844 L 25.316406 19.785156 L 20.609375 19.785156 L 20.609375 18.839844 Z M 35.683594 18.839844 L 35.683594 19.785156 L 30.972656 19.785156 L 30.972656 18.839844 Z M 8.351562 18.832031 L 8.351562 19.78125 L 1.757812 19.78125 L 1.757812 18.832031 Z M 29.109375 18.832031 L 28.773438 19.78125 L 27.519531 19.78125 L 27.183594 18.832031 Z M 6.46875 17.023438 L 6.46875 17.96875 L 3.640625 17.96875 L 3.640625 17.023438 Z M 14.007812 17.023438 L 14.007812 17.96875 L 11.179688 17.96875 L 11.179688 17.023438 Z M 19.789062 17.023438 C 19.878906 17.332031 19.921875 17.648438 19.921875 17.96875 L 16.839844 17.96875 L 16.839844 17.023438 Z M 25.320312 17.023438 L 25.320312 17.96875 L 22.496094 17.96875 L 22.496094 17.023438 Z M 33.800781 17.023438 L 33.800781 17.96875 L 30.976562 17.96875 L 30.976562 17.023438 Z M 29.738281 17.023438 L 29.40625 17.96875 L 26.894531 17.96875 L 26.558594 17.023438 Z M 6.46875 15.214844 L 6.46875 16.160156 L 3.640625 16.160156 L 3.640625 15.214844 Z M 18.652344 15.214844 C 18.96875 15.488281 19.230469 15.800781 19.441406 16.160156 L 11.183594 16.160156 L 11.183594 15.214844 Z M 25.320312 15.214844 L 25.320312 16.160156 L 22.496094 16.160156 L 22.496094 15.214844 Z M 33.804688 15.214844 L 33.804688 16.160156 L 30.976562 16.160156 L 30.976562 15.214844 Z M 30.367188 15.214844 L 30.042969 16.160156 L 26.257812 16.160156 L 25.929688 15.214844 Z M 27.882812 13.40625 L 28.148438 14.171875 L 28.414062 13.40625 L 33.804688 13.40625 L 33.804688 14.351562 L 30.976562 14.351562 L 30.976562 13.484375 L 30.675781 14.351562 L 25.621094 14.351562 L 25.316406 13.484375 L 25.316406 14.351562 L 22.496094 14.351562 L 22.496094 13.40625 Z M 6.46875 13.40625 L 6.46875 14.351562 L 3.640625 14.351562 L 3.640625 13.40625 Z M 19.453125 13.40625 C 19.246094 13.769531 18.984375 14.082031 18.664062 14.351562 L 11.183594 14.351562 L 11.183594 13.40625 Z M 6.46875 11.597656 L 6.46875 12.542969 L 3.640625 12.542969 L 3.640625 11.597656 Z M 14.007812 11.597656 L 14.007812 12.542969 L 11.179688 12.542969 L 11.179688 11.597656 Z M 19.921875 11.597656 C 19.921875 11.917969 19.878906 12.234375 19.789062 12.542969 L 16.839844 12.542969 L 16.839844 11.597656 Z M 33.800781 11.597656 L 33.800781 12.542969 L 28.714844 12.542969 L 29.042969 11.597656 Z M 27.257812 11.597656 L 27.582031 12.542969 L 22.496094 12.542969 L 22.496094 11.597656 Z M 8.351562 9.785156 L 8.351562 10.734375 L 1.757812 10.734375 L 1.757812 9.785156 Z M 19.453125 9.785156 C 19.617188 10.085938 19.746094 10.402344 19.832031 10.734375 L 9.296875 10.734375 L 9.296875 9.785156 Z M 26.644531 9.785156 L 26.96875 10.734375 L 20.609375 10.734375 L 20.609375 9.785156 Z M 35.699219 9.785156 L 35.699219 10.734375 L 29.34375 10.734375 L 29.667969 9.785156 Z M 8.351562 7.976562 L 8.351562 8.917969 L 1.757812 8.917969 L 1.757812 7.976562 Z M 16.324219 7.976562 C 17.253906 7.976562 18.0625 8.289062 18.75 8.917969 L 9.296875 8.917969 L 9.296875 7.976562 Z M 26.007812 7.976562 L 26.332031 8.925781 L 20.609375 8.925781 L 20.609375 7.976562 Z M 35.6875 7.976562 L 35.6875 8.917969 L 29.96875 8.917969 L 30.292969 7.972656 Z M 35.6875 7.976562 " fill-opacity="1" fill-rule="evenodd"/></svg>