<svg xmlns="http://www.w3.org/2000/svg" xmlns:xlink="http://www.w3.org/1999/xlink" width="50" zoomAndPan="magnify" viewBox="0 0 37.5 37.499999" height="50" preserveAspectRatio="xMidYMid meet" version="1.0"><defs><filter x="0%" y="0%" width="100%" xlink:type="simple" xlink:actuate="onLoad" height="100%" id="id1" xlink:show="other"><feColorMatrix values="0 0 0 0 1 0 0 0 0 1 0 0 0 0 1 0 0 0 1 0" color-interpolation-filters="sRGB"/></filter><mask id="id2"><g filter="url(#id1)"><rect x="-3.75" width="45" fill="rgb(0%, 0%, 0%)" y="-3.75" height="44.999999" fill-opacity="0.298"/></g></mask><clipPath id="id3"><path d="M 0.34375 1 L 4.84375 1 L 4.84375 9.949219 L 0.34375 9.949219 Z M 0.34375 1 " clip-rule="nonzero"/></clipPath><clipPath id="id4"><rect x="0" width="5" y="0" height="10"/></clipPath><clipPath id="id5"><path d="M 7.59375 7.308594 L 30.09375 7.308594 L 30.09375 30.558594 L 7.59375 30.558594 Z M 7.59375 7.308594 " clip-rule="nonzero"/></clipPath></defs><g mask="url(#id2)"><g transform="matrix(1, 0, 0, 1, 16, 9)"><g clip-path="url(#id4)"><g clip-path="url(#id3)"><path fill="rgb(100%, 100%, 100%)" d="M 0.398438 1.082031 C 2.175781 1.605469 3.652344 3.148438 4.109375 5.207031 C 4.496094 6.960938 4.054688 8.695312 3.054688 9.933594 C 4.414062 8.757812 5.101562 6.882812 4.683594 5 C 4.210938 2.851562 2.449219 1.335938 0.398438 1.082031 Z M 0.398438 1.082031 " fill-opacity="1" fill-rule="nonzero"/></g></g></g></g><g clip-path="url(#id5)"><path fill="rgb(14.118958%, 12.548828%, 12.159729%)" d="M 29.753906 29.09375 L 21.1875 20.457031 C 22.445312 19.058594 23.210938 17.207031 23.210938 15.175781 C 23.210938 10.839844 19.707031 7.308594 15.402344 7.308594 C 11.097656 7.308594 7.597656 10.839844 7.597656 15.175781 C 7.597656 19.515625 11.097656 23.046875 15.402344 23.046875 C 17.082031 23.046875 18.636719 22.507812 19.910156 21.597656 L 28.550781 30.304688 C 28.71875 30.472656 28.933594 30.558594 29.152344 30.558594 C 29.371094 30.558594 29.589844 30.472656 29.753906 30.304688 C 30.085938 29.972656 30.085938 29.425781 29.753906 29.09375 Z M 9.269531 15.175781 C 9.269531 11.765625 12.019531 8.992188 15.402344 8.992188 C 18.789062 8.992188 21.539062 11.765625 21.539062 15.175781 C 21.539062 18.585938 18.789062 21.363281 15.402344 21.363281 C 12.019531 21.363281 9.269531 18.585938 9.269531 15.175781 Z M 9.269531 15.175781 " fill-opacity="1" fill-rule="nonzero"/></g></svg>