<svg xmlns="http://www.w3.org/2000/svg" xmlns:xlink="http://www.w3.org/1999/xlink" width="50" zoomAndPan="magnify" viewBox="0 0 37.5 37.499999" height="50" preserveAspectRatio="xMidYMid meet" version="1.0"><defs><clipPath id="id1"><path d="M 7.539062 4.738281 L 30.035156 4.738281 L 30.035156 33.054688 L 7.539062 33.054688 Z M 7.539062 4.738281 " clip-rule="nonzero"/></clipPath></defs><path fill="rgb(100%, 100%, 100%)" d="M 15.5625 21.472656 C 15.664062 21.371094 15.722656 21.230469 15.722656 21.085938 L 15.722656 20.140625 C 15.730469 19.996094 15.675781 19.851562 15.578125 19.746094 C 15.472656 19.640625 15.332031 19.585938 15.183594 19.59375 L 14.609375 19.59375 L 14.609375 21.632812 L 15.179688 21.632812 C 15.324219 21.636719 15.460938 21.578125 15.5625 21.472656 Z M 18.902344 19.613281 L 18.320312 19.613281 L 18.320312 24.007812 L 18.886719 24.007812 C 19.03125 24.007812 19.167969 23.949219 19.265625 23.839844 C 19.363281 23.738281 19.421875 23.601562 19.421875 23.460938 L 19.421875 20.15625 C 19.421875 20.007812 19.363281 19.871094 19.261719 19.769531 C 19.164062 19.671875 19.035156 19.613281 18.902344 19.613281 " fill-opacity="1" fill-rule="nonzero"/><g clip-path="url(#id1)"><path fill="rgb(100%, 100%, 100%)" d="M 28.160156 16.535156 L 9.414062 16.535156 L 9.414062 5.683594 L 22.539062 5.683594 L 22.539062 10.871094 C 22.539062 11.132812 22.75 11.34375 23.003906 11.34375 L 28.160156 11.34375 Z M 23.398438 21.316406 L 23.398438 22.257812 L 22.125 22.257812 L 22.125 24.9375 L 21.1875 24.9375 L 21.1875 18.640625 L 23.875 18.640625 L 23.875 19.585938 L 22.125 19.585938 L 22.125 21.300781 Z M 17.386719 24.945312 L 17.386719 18.640625 L 18.867188 18.640625 C 19.261719 18.632812 19.644531 18.796875 19.917969 19.085938 C 20.199219 19.363281 20.355469 19.75 20.347656 20.148438 L 20.347656 23.449219 C 20.355469 23.851562 20.195312 24.234375 19.910156 24.515625 C 19.640625 24.804688 19.261719 24.964844 18.863281 24.957031 Z M 13.664062 24.945312 L 13.664062 18.644531 L 15.148438 18.644531 C 15.558594 18.628906 15.960938 18.789062 16.246094 19.085938 C 16.507812 19.375 16.640625 19.761719 16.625 20.152344 L 16.625 21.066406 C 16.632812 21.464844 16.476562 21.851562 16.195312 22.132812 C 15.925781 22.421875 15.542969 22.582031 15.148438 22.574219 L 14.609375 22.574219 L 14.609375 24.9375 Z M 28.160156 32.109375 L 9.414062 32.109375 L 9.414062 26.917969 L 28.160156 26.917969 Z M 23.476562 6.347656 L 27.503906 10.402344 L 23.476562 10.402344 Z M 29.570312 16.535156 L 29.101562 16.535156 L 29.101562 10.871094 C 29.101562 10.871094 29.101562 10.871094 29.101562 10.84375 C 29.097656 10.804688 29.089844 10.761719 29.074219 10.722656 L 29.074219 10.679688 C 29.054688 10.632812 29.027344 10.582031 28.988281 10.542969 L 23.363281 4.878906 C 23.324219 4.84375 23.277344 4.8125 23.226562 4.792969 L 23.183594 4.792969 C 23.136719 4.765625 23.089844 4.746094 23.035156 4.738281 L 8.941406 4.738281 C 8.683594 4.738281 8.476562 4.949219 8.476562 5.210938 L 8.476562 16.535156 L 8.007812 16.535156 C 7.746094 16.535156 7.539062 16.746094 7.539062 17.007812 L 7.539062 26.445312 C 7.539062 26.707031 7.746094 26.917969 8.007812 26.917969 L 8.476562 26.917969 L 8.476562 32.582031 C 8.476562 32.839844 8.683594 33.054688 8.941406 33.054688 L 28.632812 33.054688 C 28.890625 33.054688 29.101562 32.839844 29.101562 32.582031 L 29.101562 26.917969 L 29.570312 26.917969 C 29.828125 26.917969 30.035156 26.707031 30.035156 26.445312 L 30.035156 17.007812 C 30.035156 16.746094 29.828125 16.535156 29.570312 16.535156 " fill-opacity="1" fill-rule="nonzero"/></g></svg>